<svg width="640" height="640" viewBox="0 0 640 640" fill="none" xmlns="http://www.w3.org/2000/svg">
<path d="M19.1747 281.186C8.71845 281.186 0.242188 289.663 0.242188 300.118V578.191C0.242188 588.648 8.7197 597.124 19.1747 597.124H133.241V281.186H19.1747Z" fill="#8b5cf6"/>
<path d="M639.757 385.735C639.757 361.701 626.843 340.626 607.591 329.083C614.967 318.432 619.293 305.511 619.293 291.602C619.293 255.211 589.686 225.603 553.295 225.603H413.972C418.242 206.253 424.082 177.217 428.148 146.82C438.731 67.719 431.498 23.8501 405.389 8.76386C389.112 -0.639913 371.562 -2.54742 355.972 3.38759C343.928 7.9751 327.663 19.2539 318.394 46.9352L281.776 142.812C263.213 188.658 206.364 236.789 171.108 263.403V605.501C236.45 628.396 304.635 640.001 374.198 640.001H526.006C562.397 640.001 592.005 610.394 592.005 574.002C592.005 561.259 588.373 549.346 582.092 539.247C604.093 528.532 619.291 505.94 619.291 479.869C619.291 465.959 614.965 453.04 607.588 442.387C626.843 430.845 639.757 409.768 639.757 385.735Z" fill="#8b5cf6"/>
</svg>
