<svg width="640" height="640" viewBox="0 0 640 640" fill="none" xmlns="http://www.w3.org/2000/svg">
<path d="M540 619.959H100C44.86 619.959 0 575.099 0 519.959C0 502.848 4.4025 485.956 12.735 471.099L232.681 71.1944C232.72 71.1244 232.759 71.0556 232.798 70.9856C270.999 3.06938 368.985 3.04438 407.204 70.9856C407.242 71.0544 407.281 71.1244 407.32 71.1944L627.268 471.098C635.597 485.954 640 502.847 640 519.959C640 575.099 595.14 619.959 540 619.959ZM276.43 95.4044L56.4925 495.291C56.4538 495.361 56.415 495.431 56.3763 495.499C52.205 502.914 50 511.373 50 519.959C50 547.529 72.43 569.959 100 569.959H540C567.57 569.959 590 547.529 590 519.959C590 511.372 587.795 502.914 583.624 495.499C583.585 495.431 583.546 495.361 583.508 495.291L363.574 95.4106C344.436 61.5506 295.59 61.5119 276.43 95.4044Z" fill="#a78bfa"/>
<path d="M320 394.959C306.193 394.959 295 383.767 295 369.959V219.959C295 206.152 306.193 194.959 320 194.959C333.807 194.959 345 206.152 345 219.959V369.959C345 383.767 333.807 394.959 320 394.959Z" fill="#a78bfa"/>
<path d="M320 494.959C333.807 494.959 345 483.766 345 469.959C345 456.152 333.807 444.959 320 444.959C306.193 444.959 295 456.152 295 469.959C295 483.766 306.193 494.959 320 494.959Z" fill="#a78bfa"/>
</svg>
